<svg xmlns="http://www.w3.org/2000/svg" viewBox="0 0 258.68 374.05"><defs><style>.cls-1{fill:#4BAA6C;stroke:#4BAA6C;stroke-miterlimit:10;stroke-width:2.5px;}</style></defs><title>Asset 3</title><g id="Layer_2" data-name="Layer 2"><g id="Object"><path class="cls-1" d="M257.41,123.54l-9-44-47.13-57.7L129.67,1.4l-.33-.1-72,20.53L10.24,79.53l-9,44,8.9,50.15,0,.13,12.65,30.83L10,219.11l6,17.09L36,253l11.28,83,57.14,36.73h49.84l57.14-36.73,11.28-83,20-16.83,6-17.09-12.85-14.46,12.6-30.71ZM246.19,80.6l8.66,42.48-38.33,3.83L224.76,81l0-.23L202.37,27ZM223.13,81,215,126.26,130.83,69.85l68.53-45.94ZM212,144l-2.22,20.71-43.53-16.62-36.26-41L130.33,71l84.44,56.59-2.91,16.2Zm-2.89,23V198l-9,10.47-29.68-2.34-26.57-17.2V164.49l22.27-13.82ZM129.34,3.81,198,23.39,129.74,69.12,61.27,23.23Zm-38.12,145L47.4,165.52V144.38l.23-.62-2.91-16.2L129.13,71l-.39,36.13L91.58,149Zm22,16.51v24.44L86.66,206.93,57,209.28l-9-10.47V167.87l43-16.4Zm15.43-95.45L44.49,126.26,36.35,81l23.77-57ZM12.48,80.6,58,24.94,34.69,80.78,43,126.91,3.83,123.08ZM3.86,124.29l39.33,3.86,2.65,14.76-33.54,29Zm8.71,49,33-28.48L24.41,202.11ZM18,234.78l-5.29-15.12,12.91-14.53-.33-.81,20.87-56.66V166l-.6.23V199.7l9.88,11.54-18,39.84Zm20.38,18.09L57.08,252l8,25.93,0,.05-16,53.14Zm137.47,10.58,4.85,12.94-3.58,5H155.89l-13.67-41.93,43.94,11.34ZM188.3,252h8.36l-6,24.83-11.37,14.72v-9l4.18-5.85-4.82-12.84Zm-18.07,45.83V283h6.62v11.38Zm6.22-1.42v8.69L173,307.19v-9Zm-58.26,10.33V285.65l9.94,1.66v20.56Zm9.94,2.76v14.83l-5.87-1V308.82ZM81,294.39V283h6v14.52Zm3.27,3.51v8.94l-2.87-1.74v-8.69Zm1.61.84,6.54,3.4v9.64l-6.54-4Zm2.77-.37V283h7.65v19.33ZM94.05,303l6.33,3.29.28.09.61.07v10.7l-7.22-4.38Zm6.94,1.79-3.06-1.59V283h4.37l3.76.62v21.72ZM102.88,318V306.61l8.34.95v14l-3.74-.63L102.64,318Zm4.79-12.42V283.9l8.9,1.49v21.16Zm5.16,2.21,7.82.89v14.45l-7.82-1.31Zm-9.6-26.22,14-40.68,11.66,20.83,12.39-21.12,13.36,41-25.72,4.27Zm26.51,28,5.28-.61v14.56l-5.28.88Zm0-1.63V287.31l9.36-1.56V306.8Zm6.89.84,7.83-.9v14.07l-7.83,1.31Zm4.08-2.09V285.48l8.9-1.48v21.6Zm5.36,1,8.33-.95-.09,11.84-3.91,2.37-4.33.72Zm5.15-2.21V283.73l4.36-.72h3.77v20.48l-2.47,1.28Zm4.79,1.07,1.21-.13.28-.09,5.73-3v9.83l-7.3,4.43Zm5-3.84V283h7.65v15.66Zm3.89-.2,6.54-3.4v9.12l-6.54,4Zm-35.31-46.62V238.48a.88.88,0,0,0,.21-.12l8.85-8.06a.59.59,0,0,0,.19-.56l0-.09h6.13Zm9-27.38-7.19-37.62,13.8,37.62Zm-1,1.19-8.2,7.45-8.2-7.45,8.2-42.91Zm-17.46-.9v-.29h-6.56l14.58-41.67Zm-.17.91,0,.09a.59.59,0,0,0,.19.56l8.36,7.61h-.11V255.7l-14.58-26ZM102,281.41H80.72l-3.58-5L82,263.45,71.85,251l44.59-11.5ZM79.24,263.9l-4.81,12.84,4.17,5.85v9L67.21,276.8l-7.52-24.54,9.9-.24ZM66,279.15l13.84,17.91v8.42L49.62,333.4Zm38.3,90.68-54.42-35,30.69-28.39,3.75,2.27v.06h.09l22.4,13.57.16.06Zm1.18.55,2.69-47.74,20.66,3.44.14-.11.13.11,21.45-3.58,1.92,47.88Zm48.2-.06-2-48.34,25.64-15.54,31.48,28.41Zm24.41-64.85v-8.41l13.69-17.71,17.27,54Zm31.55,25.81-17-53.09.22-.29,6.3-26,21.1,1Zm11-79.64-21.12-1,.27-1.09H187.15l-.15.18-44.39-11.44,5.37-9.16-19.07-52-18.2,52,5.16,9.22L71,250l-.31-.38-14.26.36.27.88-18.23.85,18.09-39.93,30.88-2.44,28.19-18.24V164l-23-14.29,36.72-41.4L165,148.53l-23.55,14.62v27.1l28.19,18.24,30.11,2.37,21.1,40.58Zm25.36-32-5.29,15.12-18.88,15.86L201.13,211l10.35-12.08V165.4l-.57-.22,2-18.56,20.7,57.12-.57,1.39Zm.21-46.52-11.64,28.38-20.65-57,32.86,25.39Zm-32.49-30.28,2.64-14.71,38.52-3.85L247,168.6Z"/></g></g></svg>